<svg width="17" height="16" viewBox="0 0 17 16" fill="none" xmlns="http://www.w3.org/2000/svg">
<path fill-rule="evenodd" clip-rule="evenodd" d="M0.668555 0.0461731C1.02754 0.0461731 1.31855 0.337188 1.31855 0.696173L1.31855 14.0151C1.31855 14.3741 1.60957 14.6651 1.96855 14.6651H15.3559C15.7148 14.6651 16.0059 14.9561 16.0059 15.3151C16.0059 15.6741 15.7148 15.9651 15.3559 15.9651L1.96855 15.9651C0.891599 15.9651 0.0185547 15.092 0.0185547 14.0151L0.0185547 0.696173C0.0185547 0.337188 0.30957 0.0461731 0.668555 0.0461731ZM15.6788 3.96578C15.5417 3.84375 15.3595 3.78535 15.177 3.805L12.156 4.13037C11.799 4.16881 11.5409 4.48932 11.5793 4.84624C11.6177 5.20316 11.9382 5.46134 12.2952 5.4229L13.6682 5.27502L10.0983 8.8449L7.23856 5.98515C7.11666 5.86325 6.95133 5.79477 6.77894 5.79477C6.60655 5.79477 6.44122 5.86325 6.31932 5.98515L2.99995 9.30452C2.74611 9.55836 2.74611 9.96992 2.99995 10.2238C3.25379 10.4776 3.66535 10.4776 3.91919 10.2238L6.77894 7.36401L9.63869 10.2238C9.76059 10.3457 9.92592 10.4141 10.0983 10.4141C10.2707 10.4141 10.436 10.3457 10.5579 10.2238L14.6116 6.17013L14.6225 7.42255C14.6256 7.78152 14.9191 8.06999 15.2781 8.06687C15.6371 8.06374 15.9255 7.7702 15.9224 7.41123L15.8966 4.44561C15.895 4.26209 15.8159 4.08781 15.6788 3.96578Z" fill="#626F84"/>
</svg>
