<svg width="14" height="18" viewBox="0 0 14 18" fill="none" xmlns="http://www.w3.org/2000/svg">
<path fill-rule="evenodd" clip-rule="evenodd" d="M4.19829 15.9983C3.95374 15.5367 3.80697 14.9607 3.80697 14.2669C3.80697 12.4655 4.69682 11.394 5.52762 10.3937L5.64453 10.2469C5.84214 10.0088 5.94224 9.87144 6.09981 9.60462C6.23955 9.368 6.35527 9.12462 6.44684 8.87269C6.52372 8.66115 6.70457 8.50444 6.9249 8.45844C7.14522 8.41244 7.37367 8.4837 7.52877 8.6468C8.56385 9.73529 9.19881 10.5732 9.58877 11.2892C10.0854 12.2012 10.1931 12.9311 10.1931 13.8011C10.1931 14.7006 9.81783 15.5886 9.21764 16.2741C11.2752 15.4416 12.7 13.4724 12.7 11.112C12.7 8.59499 11.0769 7.29543 9.51516 6.10162L9.46961 6.06681C9.08027 5.76934 8.6389 5.43211 8.30301 5.0896C7.45536 4.22527 6.8777 3.24259 6.66993 2.01247C2.15839 6.20068 1.3 8.78913 1.3 11.112C1.3 13.2418 2.46008 15.0532 4.19829 15.9983ZM7 18C10.866 18 14 15 14 11.112C14 7.89352 11.8391 6.24171 10.3046 5.0688C9.87864 4.74317 9.50094 4.45445 9.23116 4.17937C8.38333 3.31484 7.91179 2.37105 7.88563 1.07035C7.87213 0.398622 7.05559 -0.08396 6.55345 0.362421C1.25494 5.07263 0 8.13764 0 11.112C0 15 3.13401 18 7 18ZM6.61978 11.1133C6.84856 10.8375 7.05306 10.5494 7.23025 10.2469C7.83369 10.9382 8.20866 11.4731 8.4471 11.911C8.81337 12.5835 8.89305 13.0853 8.89305 13.8011C8.89305 14.3718 8.63687 14.9935 8.18097 15.4825C7.7188 15.9783 7.20393 16.1815 6.8296 16.1815C6.25666 16.1815 5.85454 15.9901 5.60057 15.7364C5.35372 15.4897 5.10697 15.0441 5.10697 14.2669C5.10697 12.9588 5.70906 12.2102 6.55924 11.1863L6.61978 11.1133Z" fill="#626F84"/>
</svg>
