<svg width="16" height="16" viewBox="0 0 16 16" fill="none" xmlns="http://www.w3.org/2000/svg">
<path fill-rule="evenodd" clip-rule="evenodd" d="M0 1.3C0 0.58203 0.58203 0 1.3 0H5.7C6.41797 0 7 0.58203 7 1.3V5.7C7 6.41797 6.41797 7 5.7 7H1.3C0.58203 7 0 6.41797 0 5.7V1.3ZM1.3 1.3H5.7V5.7L1.3 5.7V1.3Z" fill="#626F84"/>
<path fill-rule="evenodd" clip-rule="evenodd" d="M0 10.3C0 9.58203 0.58203 9 1.3 9H5.7C6.41797 9 7 9.58203 7 10.3V14.7C7 15.418 6.41797 16 5.7 16H1.3C0.58203 16 0 15.418 0 14.7V10.3ZM1.3 10.3H5.7V14.7L1.3 14.7V10.3Z" fill="#626F84"/>
<path fill-rule="evenodd" clip-rule="evenodd" d="M10.3 0C9.58203 0 9 0.58203 9 1.3V5.7C9 6.41797 9.58203 7 10.3 7H14.7C15.418 7 16 6.41797 16 5.7V1.3C16 0.58203 15.418 0 14.7 0H10.3ZM14.7 1.3H10.3V5.7L14.7 5.7V1.3Z" fill="#626F84"/>
<path fill-rule="evenodd" clip-rule="evenodd" d="M9 10.3C9 9.58203 9.58203 9 10.3 9H14.7C15.418 9 16 9.58203 16 10.3V14.7C16 15.418 15.418 16 14.7 16H10.3C9.58203 16 9 15.418 9 14.7V10.3ZM10.3 10.3H14.7V14.7L10.3 14.7V10.3Z" fill="#626F84"/>
</svg>
