<svg width="18" height="4" viewBox="0 0 18 4" fill="none" xmlns="http://www.w3.org/2000/svg">
<path d="M2 0C3.10457 0 4 0.895431 4 2C4 3.10457 3.10457 4 2 4C0.895431 4 0 3.10457 0 2C0 0.895431 0.89543 0 2 0Z" fill="#626F84"/>
<path d="M16 0C17.1046 0 18 0.895431 18 2C18 3.10457 17.1046 4 16 4C14.8954 4 14 3.10457 14 2C14 0.895431 14.8954 0 16 0Z" fill="#626F84"/>
<path d="M11 2C11 0.895431 10.1046 0 9 0C7.89543 0 7 0.895431 7 2C7 3.10457 7.89543 4 9 4C10.1046 4 11 3.10457 11 2Z" fill="#626F84"/>
</svg>
