<svg width="18" height="18" viewBox="0 0 18 18" fill="none" xmlns="http://www.w3.org/2000/svg">
<path fill-rule="evenodd" clip-rule="evenodd" d="M10.296 0.0926384C9.58538 -0.00984576 9 0.582048 9 1.30002V7.70002C9 8.41799 9.58203 9.00002 10.3 9.00002H16.7C17.418 9.00002 18.0099 8.41464 17.9074 7.70402C17.3401 3.77071 14.2293 0.659894 10.296 0.0926384Z" fill="#626F84"/>
<path d="M7.7 1.5399C7.7 0.747852 6.99238 0.133886 6.23846 0.376682C2.61888 1.54235 0 4.93788 0 8.94509C0 13.9156 4.02944 17.9451 9 17.9451C12.9844 17.9451 16.3641 15.3559 17.5483 11.7683C17.7976 11.0131 17.1829 10.3 16.3877 10.3H9C8.28203 10.3 7.7 9.71797 7.7 9V1.5399Z" fill="#626F84"/>
</svg>
