<svg width="18" height="18" viewBox="0 0 18 18" fill="none" xmlns="http://www.w3.org/2000/svg">
<path fill-rule="evenodd" clip-rule="evenodd" d="M0 9C0 4.02944 4.02944 0 9 0C13.9706 0 18 4.02944 18 9C18 13.9706 13.9706 18 9 18C4.02944 18 0 13.9706 0 9ZM9 4C9.35898 4 9.65 4.29102 9.65 4.65L9.65002 8.35H13.35C13.709 8.35 14 8.64102 14 9C14 9.35899 13.709 9.65 13.35 9.65H9.65002L9.65 13.35C9.65 13.709 9.35898 14 9 14C8.64102 14 8.35 13.709 8.35 13.35L8.35002 9.65H4.65C4.29101 9.65 4 9.35899 4 9C4 8.64102 4.29101 8.35 4.65 8.35H8.35002L8.35 4.65C8.35 4.29102 8.64102 4 9 4Z" fill="#626F84"/>
</svg>
