<svg width="20" height="20" viewBox="0 0 20 20" fill="none" xmlns="http://www.w3.org/2000/svg">
<path d="M12.456 0.920947C11.6881 0.153008 10.3728 0.609447 10.2457 1.68801L10.2501 3.79801L5.42514 8.62302L3.32358 8.61014C2.24502 8.73727 1.78858 10.0525 2.55652 10.8204L5.41859 13.6825L0.915722 18.1854C0.661882 18.4392 0.661882 18.8508 0.915722 19.1046C1.16956 19.3585 1.58112 19.3585 1.83496 19.1046L6.33783 14.6018L9.17962 17.4435C9.94756 18.2115 11.2628 17.755 11.3899 16.6765L11.377 14.5749L16.202 9.74992L18.3121 9.75435C19.3906 9.62722 19.8471 8.31199 19.0791 7.54405L12.456 0.920947Z" fill="#626F84"/>
</svg>
