<svg width="18" height="18" viewBox="0 0 18 18" fill="none" xmlns="http://www.w3.org/2000/svg">
<path d="M9.65 5.15343C9.65 4.79445 9.35898 4.50344 9 4.50344C8.64102 4.50344 8.35 4.79445 8.35 5.15343V9.65344C8.35 10.0124 8.64102 10.3034 9 10.3034H13C13.359 10.3034 13.65 10.0124 13.65 9.65344C13.65 9.29445 13.359 9.00344 13 9.00344H9.65V5.15343Z" fill="#626F84"/>
<path fill-rule="evenodd" clip-rule="evenodd" d="M0 9C0 4.02944 4.02944 0 9 0C13.9706 0 18 4.02944 18 9C18 13.9706 13.9706 18 9 18C4.02944 18 0 13.9706 0 9ZM9 1.3C4.74741 1.3 1.3 4.74741 1.3 9C1.3 13.2526 4.74741 16.7 9 16.7C13.2526 16.7 16.7 13.2526 16.7 9C16.7 4.74741 13.2526 1.3 9 1.3Z" fill="#626F84"/>
</svg>
